<?xml version="1.0" encoding="UTF-8" standalone="no"?>
<!-- Created with Inkscape (http://www.inkscape.org/) -->

<svg
   width="210mm"
   height="297mm"
   viewBox="0 0 210 297"
   version="1.1"
   id="svg1"
   xml:space="preserve"
   inkscape:version="1.3.2 (091e20e, 2023-11-25)"
   sodipodi:docname="BirdWatch_logos.svg"
   xmlns:inkscape="http://www.inkscape.org/namespaces/inkscape"
   xmlns:sodipodi="http://sodipodi.sourceforge.net/DTD/sodipodi-0.dtd"
   xmlns="http://www.w3.org/2000/svg"
   xmlns:svg="http://www.w3.org/2000/svg"><sodipodi:namedview
     id="namedview1"
     pagecolor="#505050"
     bordercolor="#eeeeee"
     borderopacity="1"
     inkscape:showpageshadow="0"
     inkscape:pageopacity="0"
     inkscape:pagecheckerboard="true"
     inkscape:deskcolor="#505050"
     inkscape:document-units="mm"
     showborder="false"
     inkscape:zoom="0.14898623"
     inkscape:cx="9658.611"
     inkscape:cy="5631.3931"
     inkscape:window-width="2488"
     inkscape:window-height="1376"
     inkscape:window-x="72"
     inkscape:window-y="27"
     inkscape:window-maximized="1"
     inkscape:current-layer="layer1"
     showgrid="false" /><defs
     id="defs1"><inkscape:path-effect
       effect="fillet_chamfer"
       id="path-effect25"
       is_visible="true"
       lpeversion="1"
       nodesatellites_param="F,0,0,1,0,0,0,1 @ F,0,0,1,0,0,0,1"
       radius="0"
       unit="px"
       method="auto"
       mode="F"
       chamfer_steps="1"
       flexible="false"
       use_knot_distance="true"
       apply_no_radius="true"
       apply_with_radius="true"
       only_selected="false"
       hide_knots="false" /><inkscape:path-effect
       effect="fillet_chamfer"
       id="path-effect23"
       is_visible="true"
       lpeversion="1"
       nodesatellites_param="F,0,0,1,0,0,0,1 @ F,0,0,1,0,0,0,1 @ F,0,0,1,0,0,0,1 @ F,0,0,1,0,0,0,1"
       radius="0"
       unit="px"
       method="auto"
       mode="F"
       chamfer_steps="1"
       flexible="false"
       use_knot_distance="true"
       apply_no_radius="true"
       apply_with_radius="true"
       only_selected="false"
       hide_knots="false" /><inkscape:path-effect
       effect="fillet_chamfer"
       id="path-effect19"
       is_visible="true"
       lpeversion="1"
       nodesatellites_param="F,0,0,1,0,0,0,1 @ F,0,0,1,0,0,0,1"
       radius="0"
       unit="px"
       method="auto"
       mode="F"
       chamfer_steps="1"
       flexible="false"
       use_knot_distance="true"
       apply_no_radius="true"
       apply_with_radius="true"
       only_selected="false"
       hide_knots="false" /><inkscape:path-effect
       effect="fillet_chamfer"
       id="path-effect17"
       is_visible="true"
       lpeversion="1"
       nodesatellites_param="F,0,0,1,0,0,0,1 @ F,0,0,1,0,0,0,1"
       radius="0"
       unit="px"
       method="auto"
       mode="F"
       chamfer_steps="1"
       flexible="false"
       use_knot_distance="true"
       apply_no_radius="true"
       apply_with_radius="true"
       only_selected="false"
       hide_knots="false" /></defs><g
     inkscape:label="Layer 1"
     inkscape:groupmode="layer"
     id="layer1"><g
       id="g135"
       transform="translate(-1.5970459,1.09729)"><rect
         style="fill:#ffffff;stroke:none;stroke-width:2"
         id="rect86"
         width="248.35352"
         height="248.35352"
         x="1291.6448"
         y="1235.3234" /><path
         id="path89"
         style="fill:#17822c;fill-opacity:1;stroke:none;stroke-width:4.99999;stroke-dasharray:none"
         d="m 1367.4885,1316.8617 19.0469,56.8477 h 21.0117 l 8.2734,-24.6957 8.2754,24.6957 h 21.0117 l 19.0469,-56.8477 h -9.4785 -11.1523 l -8.2755,24.6972 -8.2734,-24.6972 h -22.3066 l -8.2755,24.6972 -8.2734,-24.6972 h -11.1544 z" /><path
         id="ellipse86"
         style="fill:#17822c;fill-opacity:1;stroke:none;stroke-width:5;stroke-dasharray:none"
         d="m 1343.7618,1357.3481 c -23.2443,0 -41.7266,16.3567 -41.7266,36.1658 0,19.8091 18.4823,36.1642 41.7266,36.1642 23.2443,0 41.7267,-16.3551 41.7267,-36.1642 0,-19.8091 -18.4824,-36.1658 -41.7267,-36.1658 z" /><path
         style="fill:#98302a;fill-opacity:1;stroke:none;stroke-width:5;stroke-dasharray:none"
         d="m 1387.9865,1393.3604 a 44.226398,38.665764 0 0 1 5e-4,0.01 v -0.01 z"
         id="path110" /><path
         style="fill:#17822c;fill-opacity:1;stroke:none;stroke-width:5;stroke-dasharray:none"
         d="m 1363.1622,1289.3228 c -8.8147,0.01 -16.71,4.7238 -20.1895,11.8122 l -0.834,1.6955 -28.5311,59.3788 c 8.279,-6.209 18.8771,-9.844 30.1563,-9.865 14.0031,0 26.5583,5.5293 35.1157,14.2534 l -18.3405,-54.7362 h 16.4258 8.2724 l -0.01,-2.7926 c 0,-10.7912 -9.723,-19.7415 -22.0684,-19.7425 z"
         id="path87" /><path
         id="ellipse87"
         style="fill:#17822c;fill-opacity:1;stroke:none;stroke-width:5;stroke-dasharray:none"
         d="m 1487.8812,1357.3481 c -23.2443,0 -41.7267,16.3567 -41.7267,36.1658 0,19.8091 18.4824,36.1642 41.7267,36.1642 23.2443,0 41.7266,-16.3551 41.7266,-36.1642 0,-19.8091 -18.4823,-36.1658 -41.7266,-36.1658 z" /><path
         style="fill:#17822c;fill-opacity:1;stroke:none;stroke-width:5;stroke-dasharray:none"
         d="m 1468.4808,1289.3264 v 0 c -12.3453,10e-4 -22.0685,8.9507 -22.0684,19.7419 l -0.01,2.789 h 8.2703 16.4279 l -18.341,54.7383 c 8.5574,-8.7243 21.1128,-14.2519 35.1162,-14.2519 11.2786,0.021 21.8754,3.6572 30.1542,9.8656 l -28.5253,-59.3695 -0.8377,-1.7049 c -3.4795,-7.0882 -11.3746,-11.8027 -20.1895,-11.8127 z"
         id="path88" /></g><g
       id="g136"
       transform="translate(-2.5603027,1.09729)"><rect
         style="fill:#ffffff;stroke:none;stroke-width:2"
         id="rect116"
         width="248.35352"
         height="248.35352"
         x="1562.1758"
         y="1235.3234" /><path
         id="path116"
         style="fill:#98302a;fill-opacity:1;stroke:none;stroke-width:4.99999;stroke-dasharray:none"
         d="m 1638.0195,1316.8617 19.0469,56.8477 h 21.0117 l 8.2734,-24.6957 8.2754,24.6957 h 21.0117 l 19.0469,-56.8477 h -9.4785 -11.1523 l -8.2755,24.6972 -8.2734,-24.6972 h -22.3066 l -8.2755,24.6972 -8.2734,-24.6972 h -11.1544 z" /><path
         id="path117"
         style="fill:#98302a;fill-opacity:1;stroke:none;stroke-width:5;stroke-dasharray:none"
         d="m 1614.2928,1357.3481 c -23.2443,0 -41.7266,16.3567 -41.7266,36.1658 0,19.8091 18.4823,36.1642 41.7266,36.1642 23.2443,0 41.7267,-16.3551 41.7267,-36.1642 0,-19.8091 -18.4824,-36.1658 -41.7267,-36.1658 z" /><path
         style="fill:#98302a;fill-opacity:1;stroke:none;stroke-width:5;stroke-dasharray:none"
         d="m 1658.5175,1393.3604 a 44.226398,38.665764 0 0 1 5e-4,0.01 v -0.01 z"
         id="path118" /><path
         style="fill:#98302a;fill-opacity:1;stroke:none;stroke-width:5;stroke-dasharray:none"
         d="m 1633.6932,1289.3228 c -8.8147,0.01 -16.71,4.7238 -20.1895,11.8122 l -0.834,1.6955 -28.5311,59.3788 c 8.279,-6.209 18.8771,-9.844 30.1563,-9.865 14.0031,0 26.5583,5.5293 35.1157,14.2534 l -18.3405,-54.7362 h 16.4258 8.2724 l -0.01,-2.7926 c 0,-10.7912 -9.723,-19.7415 -22.0684,-19.7425 z"
         id="path119" /><path
         id="path120"
         style="fill:#98302a;fill-opacity:1;stroke:none;stroke-width:5;stroke-dasharray:none"
         d="m 1758.4122,1357.3481 c -23.2443,0 -41.7267,16.3567 -41.7267,36.1658 0,19.8091 18.4824,36.1642 41.7267,36.1642 23.2443,0 41.7266,-16.3551 41.7266,-36.1642 0,-19.8091 -18.4823,-36.1658 -41.7266,-36.1658 z" /><path
         style="fill:#98302a;fill-opacity:1;stroke:none;stroke-width:5;stroke-dasharray:none"
         d="m 1739.0118,1289.3264 v 0 c -12.3453,10e-4 -22.0685,8.9507 -22.0684,19.7419 l -0.01,2.789 h 8.2703 16.4279 l -18.341,54.7383 c 8.5574,-8.7243 21.1128,-14.2519 35.1162,-14.2519 11.2786,0.021 21.8754,3.6572 30.1542,9.8656 l -28.5253,-59.3695 -0.8377,-1.7049 c -3.4795,-7.0882 -11.3746,-11.8027 -20.1895,-11.8127 z"
         id="path121" /></g><g
       id="g3"><rect
         style="fill:#ffffff;stroke:none;stroke-width:2"
         id="rect121"
         width="248.35352"
         height="248.35352"
         x="1559.6155"
         y="964.70087" /><path
         id="path122"
         style="fill:#ac7b16;fill-opacity:1;stroke:none;stroke-width:4.99999;stroke-dasharray:none"
         d="m 1635.4592,1046.2391 19.0469,56.8477 h 21.0117 l 8.2734,-24.6957 8.2754,24.6957 h 21.0117 l 19.0469,-56.8477 h -9.4785 -11.1523 l -8.2755,24.6972 -8.2734,-24.6972 h -22.3066 l -8.2755,24.6972 -8.2734,-24.6972 h -11.1544 z" /><path
         id="path123"
         style="fill:#ac7b16;fill-opacity:1;stroke:none;stroke-width:5;stroke-dasharray:none"
         d="m 1611.7325,1086.7255 c -23.2443,0 -41.7266,16.3567 -41.7266,36.1658 0,19.8091 18.4823,36.1642 41.7266,36.1642 23.2443,0 41.7267,-16.3551 41.7267,-36.1642 0,-19.8091 -18.4824,-36.1658 -41.7267,-36.1658 z" /><path
         style="fill:#ac7b16;fill-opacity:1;stroke:none;stroke-width:5;stroke-dasharray:none"
         d="m 1655.9572,1122.7378 a 44.226398,38.665764 0 0 1 5e-4,0.01 v -0.01 z"
         id="path124" /><path
         style="fill:#ac7b16;fill-opacity:1;stroke:none;stroke-width:5;stroke-dasharray:none"
         d="m 1631.1329,1018.7002 c -8.8147,0.01 -16.71,4.7238 -20.1895,11.8122 l -0.834,1.6955 -28.5311,59.3788 c 8.279,-6.209 18.8771,-9.844 30.1563,-9.865 14.0031,0 26.5583,5.5293 35.1157,14.2534 l -18.3405,-54.7362 h 16.4258 8.2724 l -0.01,-2.7926 c 0,-10.7912 -9.723,-19.7415 -22.0684,-19.7425 z"
         id="path125" /><path
         id="path126"
         style="fill:#ac7b16;fill-opacity:1;stroke:none;stroke-width:5;stroke-dasharray:none"
         d="m 1755.8519,1086.7255 c -23.2443,0 -41.7267,16.3567 -41.7267,36.1658 0,19.8091 18.4824,36.1642 41.7267,36.1642 23.2443,0 41.7266,-16.3551 41.7266,-36.1642 0,-19.8091 -18.4823,-36.1658 -41.7266,-36.1658 z" /><path
         style="fill:#ac7b16;fill-opacity:1;stroke:none;stroke-width:5;stroke-dasharray:none"
         d="m 1736.4515,1018.7038 v 0 c -12.3453,10e-4 -22.0685,8.9507 -22.0684,19.7419 l -0.01,2.789 h 8.2703 16.4279 l -18.341,54.7383 c 8.5574,-8.7243 21.1128,-14.2519 35.1162,-14.2519 11.2786,0.021 21.8754,3.6572 30.1542,9.8656 l -28.5253,-59.3695 -0.8377,-1.7049 c -3.4795,-7.0882 -11.3746,-11.8027 -20.1895,-11.8127 z"
         id="path127" /></g><g
       id="g133"
       transform="translate(0,-2.1520386)"><rect
         style="fill:#ffffff;stroke:none;stroke-width:2"
         id="rect127"
         width="248.35352"
         height="248.35352"
         x="1290.0477"
         y="966.85291" /><path
         id="path128"
         style="fill:#000000;fill-opacity:1;stroke:none;stroke-width:4.99999;stroke-dasharray:none"
         d="m 1365.8914,1048.3912 19.0469,56.8477 h 21.0117 l 8.2734,-24.6957 8.2754,24.6957 h 21.0117 l 19.0469,-56.8477 h -9.4785 -11.1523 l -8.2755,24.6972 -8.2734,-24.6972 h -22.3066 l -8.2755,24.6972 -8.2734,-24.6972 h -11.1544 z" /><path
         id="path129"
         style="fill:#000000;fill-opacity:1;stroke:none;stroke-width:5;stroke-dasharray:none"
         d="m 1342.1647,1088.8776 c -23.2443,0 -41.7266,16.3567 -41.7266,36.1658 0,19.8091 18.4823,36.1642 41.7266,36.1642 23.2443,0 41.7267,-16.3551 41.7267,-36.1642 0,-19.8091 -18.4824,-36.1658 -41.7267,-36.1658 z" /><path
         style="fill:#98302a;fill-opacity:1;stroke:none;stroke-width:5;stroke-dasharray:none"
         d="m 1386.3894,1124.8899 a 44.226398,38.665764 0 0 1 5e-4,0.01 v -0.01 z"
         id="path130" /><path
         style="fill:#000000;fill-opacity:1;stroke:none;stroke-width:5;stroke-dasharray:none"
         d="m 1361.5651,1020.8523 c -8.8147,0.01 -16.71,4.7238 -20.1895,11.8122 l -0.834,1.6955 -28.5311,59.3788 c 8.279,-6.209 18.8771,-9.844 30.1563,-9.865 14.0031,0 26.5583,5.5293 35.1157,14.2534 l -18.3405,-54.7362 h 16.4258 8.2724 l -0.01,-2.7926 c 0,-10.7912 -9.723,-19.7415 -22.0684,-19.7425 z"
         id="path131" /><path
         id="path132"
         style="fill:#000000;fill-opacity:1;stroke:none;stroke-width:5;stroke-dasharray:none"
         d="m 1486.2841,1088.8776 c -23.2443,0 -41.7267,16.3567 -41.7267,36.1658 0,19.8091 18.4824,36.1642 41.7267,36.1642 23.2443,0 41.7266,-16.3551 41.7266,-36.1642 0,-19.8091 -18.4823,-36.1658 -41.7266,-36.1658 z" /><path
         style="fill:#000000;fill-opacity:1;stroke:none;stroke-width:5;stroke-dasharray:none"
         d="m 1466.8837,1020.8559 v 0 c -12.3453,10e-4 -22.0685,8.9507 -22.0684,19.7419 l -0.01,2.789 h 8.2703 16.4279 l -18.341,54.7383 c 8.5574,-8.7243 21.1128,-14.2519 35.1162,-14.2519 11.2786,0.021 21.8754,3.6572 30.1542,9.8656 l -28.5253,-59.3695 -0.8377,-1.7049 c -3.4795,-7.0882 -11.3746,-11.8027 -20.1895,-11.8127 z"
         id="path133" /></g><g
       id="g167"><rect
         style="fill:#000000;stroke:none;stroke-width:2"
         id="rect141"
         width="248.35352"
         height="248.35352"
         x="2098.751"
         y="1236.4207" /><path
         id="path142"
         style="fill:#17822c;fill-opacity:1;stroke:none;stroke-width:4.99999;stroke-dasharray:none"
         d="m 2174.5947,1317.959 19.0469,56.8477 h 21.0117 l 8.2734,-24.6957 8.2754,24.6957 h 21.0117 l 19.0469,-56.8477 h -9.4785 -11.1523 l -8.2755,24.6972 -8.2734,-24.6972 h -22.3066 l -8.2755,24.6972 -8.2734,-24.6972 h -11.1544 z" /><path
         id="path143"
         style="fill:#17822c;fill-opacity:1;stroke:none;stroke-width:5;stroke-dasharray:none"
         d="m 2150.868,1358.4454 c -23.2443,0 -41.7266,16.3567 -41.7266,36.1658 0,19.8091 18.4823,36.1642 41.7266,36.1642 23.2443,0 41.7267,-16.3551 41.7267,-36.1642 0,-19.8091 -18.4824,-36.1658 -41.7267,-36.1658 z" /><path
         style="fill:#98302a;fill-opacity:1;stroke:none;stroke-width:5;stroke-dasharray:none"
         d="m 2195.0927,1394.4577 a 44.226398,38.665764 0 0 1 5e-4,0.01 v -0.01 z"
         id="path144" /><path
         style="fill:#17822c;fill-opacity:1;stroke:none;stroke-width:5;stroke-dasharray:none"
         d="m 2170.2684,1290.4201 c -8.8147,0.01 -16.71,4.7238 -20.1895,11.8122 l -0.834,1.6955 -28.5311,59.3788 c 8.279,-6.209 18.8771,-9.844 30.1563,-9.865 14.0031,0 26.5583,5.5293 35.1157,14.2534 l -18.3405,-54.7362 h 16.4258 8.2724 l -0.01,-2.7926 c 0,-10.7912 -9.723,-19.7415 -22.0684,-19.7425 z"
         id="path145" /><path
         id="path146"
         style="fill:#17822c;fill-opacity:1;stroke:none;stroke-width:5;stroke-dasharray:none"
         d="m 2294.9874,1358.4454 c -23.2443,0 -41.7267,16.3567 -41.7267,36.1658 0,19.8091 18.4824,36.1642 41.7267,36.1642 23.2443,0 41.7266,-16.3551 41.7266,-36.1642 0,-19.8091 -18.4823,-36.1658 -41.7266,-36.1658 z" /><path
         style="fill:#17822c;fill-opacity:1;stroke:none;stroke-width:5;stroke-dasharray:none"
         d="m 2275.587,1290.4237 v 0 c -12.3453,10e-4 -22.0685,8.9507 -22.0684,19.7419 l -0.01,2.789 h 8.2703 16.4279 l -18.341,54.7383 c 8.5574,-8.7243 21.1128,-14.2519 35.1162,-14.2519 11.2786,0.021 21.8754,3.6572 30.1542,9.8656 l -28.5253,-59.3695 -0.8377,-1.7049 c -3.4795,-7.0882 -11.3746,-11.8027 -20.1895,-11.8127 z"
         id="path147" /></g><g
       id="g168"><rect
         style="fill:#000000;stroke:none;stroke-width:2"
         id="rect147"
         width="248.35352"
         height="248.35352"
         x="2368.3188"
         y="1236.4207" /><path
         id="path148"
         style="fill:#98302a;fill-opacity:1;stroke:none;stroke-width:4.99999;stroke-dasharray:none"
         d="m 2444.1625,1317.959 19.0469,56.8477 h 21.0117 l 8.2734,-24.6957 8.2754,24.6957 h 21.0117 l 19.0469,-56.8477 h -9.4785 -11.1523 l -8.2755,24.6972 -8.2734,-24.6972 h -22.3066 l -8.2755,24.6972 -8.2734,-24.6972 h -11.1544 z" /><path
         id="path149"
         style="fill:#98302a;fill-opacity:1;stroke:none;stroke-width:5;stroke-dasharray:none"
         d="m 2420.4358,1358.4454 c -23.2444,0 -41.7266,16.3567 -41.7266,36.1658 0,19.8091 18.4822,36.1642 41.7266,36.1642 23.2443,0 41.7266,-16.3551 41.7266,-36.1642 0,-19.8091 -18.4823,-36.1658 -41.7266,-36.1658 z" /><path
         style="fill:#98302a;fill-opacity:1;stroke:none;stroke-width:5;stroke-dasharray:none"
         d="m 2464.6604,1394.4577 a 44.226398,38.665764 0 0 1 6e-4,0.01 v -0.01 z"
         id="path150" /><path
         style="fill:#98302a;fill-opacity:1;stroke:none;stroke-width:5;stroke-dasharray:none"
         d="m 2439.8362,1290.4201 c -8.8147,0.01 -16.71,4.7238 -20.1895,11.8122 l -0.8341,1.6955 -28.531,59.3788 c 8.279,-6.209 18.877,-9.844 30.1563,-9.865 14.0031,0 26.5583,5.5293 35.1157,14.2534 l -18.3405,-54.7362 h 16.4258 8.2724 l -0.01,-2.7926 c 0,-10.7912 -9.723,-19.7415 -22.0684,-19.7425 z"
         id="path151" /><path
         id="path152"
         style="fill:#98302a;fill-opacity:1;stroke:none;stroke-width:5;stroke-dasharray:none"
         d="m 2564.5552,1358.4454 c -23.2444,0 -41.7267,16.3567 -41.7267,36.1658 0,19.8091 18.4824,36.1642 41.7267,36.1642 23.2443,0 41.7266,-16.3551 41.7266,-36.1642 0,-19.8091 -18.4823,-36.1658 -41.7266,-36.1658 z" /><path
         style="fill:#98302a;fill-opacity:1;stroke:none;stroke-width:5;stroke-dasharray:none"
         d="m 2545.1548,1290.4237 v 0 c -12.3453,10e-4 -22.0686,8.9507 -22.0684,19.7419 l -0.01,2.789 h 8.2704 16.4278 l -18.341,54.7383 c 8.5574,-8.7243 21.1129,-14.2519 35.1162,-14.2519 11.2786,0.021 21.8754,3.6572 30.1542,9.8656 l -28.5253,-59.3695 -0.8377,-1.7049 c -3.4795,-7.0882 -11.3746,-11.8027 -20.1895,-11.8127 z"
         id="path153" /></g><g
       id="g4"
       transform="translate(-6.875e-5,-2.1520631)"><rect
         style="fill:#000000;stroke:none;stroke-width:2"
         id="rect153"
         width="248.35352"
         height="248.35352"
         x="2368.3188"
         y="966.85291" /><path
         id="path154"
         style="fill:#ac7b16;fill-opacity:1;stroke:none;stroke-width:4.99999;stroke-dasharray:none"
         d="m 2444.1625,1048.3912 19.0469,56.8477 h 21.0117 l 8.2734,-24.6957 8.2754,24.6957 h 21.0117 l 19.0469,-56.8477 h -9.4785 -11.1523 l -8.2755,24.6972 -8.2734,-24.6972 h -22.3066 l -8.2755,24.6972 -8.2734,-24.6972 h -11.1544 z" /><path
         id="path155"
         style="fill:#ac7b16;fill-opacity:1;stroke:none;stroke-width:5;stroke-dasharray:none"
         d="m 2420.4358,1088.8776 c -23.2444,0 -41.7266,16.3567 -41.7266,36.1658 0,19.8091 18.4822,36.1642 41.7266,36.1642 23.2443,0 41.7266,-16.3551 41.7266,-36.1642 0,-19.8091 -18.4823,-36.1658 -41.7266,-36.1658 z" /><path
         style="fill:#ac7b16;fill-opacity:1;stroke:none;stroke-width:5;stroke-dasharray:none"
         d="m 2464.6604,1124.8899 a 44.226398,38.665764 0 0 1 6e-4,0.01 v -0.01 z"
         id="path156" /><path
         style="fill:#ac7b16;fill-opacity:1;stroke:none;stroke-width:5;stroke-dasharray:none"
         d="m 2439.8362,1020.8523 c -8.8147,0.01 -16.71,4.7238 -20.1895,11.8122 l -0.8341,1.6955 -28.531,59.3788 c 8.279,-6.209 18.877,-9.844 30.1563,-9.865 14.0031,0 26.5583,5.5293 35.1157,14.2534 l -18.3405,-54.7362 h 16.4258 8.2724 l -0.01,-2.7926 c 0,-10.7912 -9.723,-19.7415 -22.0684,-19.7425 z"
         id="path157" /><path
         id="path158"
         style="fill:#ac7b16;fill-opacity:1;stroke:none;stroke-width:5;stroke-dasharray:none"
         d="m 2564.5552,1088.8776 c -23.2444,0 -41.7267,16.3567 -41.7267,36.1658 0,19.8091 18.4824,36.1642 41.7267,36.1642 23.2443,0 41.7266,-16.3551 41.7266,-36.1642 0,-19.8091 -18.4823,-36.1658 -41.7266,-36.1658 z" /><path
         style="fill:#ac7b16;fill-opacity:1;stroke:none;stroke-width:5;stroke-dasharray:none"
         d="m 2545.1548,1020.8559 v 0 c -12.3453,10e-4 -22.0686,8.9507 -22.0684,19.7419 l -0.01,2.789 h 8.2704 16.4278 l -18.341,54.7383 c 8.5574,-8.7243 21.1129,-14.2519 35.1162,-14.2519 11.2786,0.021 21.8754,3.6572 30.1542,9.8656 l -28.5253,-59.3695 -0.8377,-1.7049 c -3.4795,-7.0882 -11.3746,-11.8027 -20.1895,-11.8127 z"
         id="path159" /></g><g
       id="g165"
       transform="translate(-3.4375e-5,-2.1520631)"><rect
         style="fill:#000000;stroke:none;stroke-width:2"
         id="rect159"
         width="248.35352"
         height="248.35352"
         x="2098.751"
         y="966.85291" /><path
         id="path160"
         style="fill:#ffffff;fill-opacity:1;stroke:none;stroke-width:4.99999;stroke-dasharray:none"
         d="m 2174.5947,1048.3912 19.0469,56.8477 h 21.0117 l 8.2734,-24.6957 8.2753,24.6957 h 21.0117 l 19.047,-56.8477 h -9.4785 -11.1523 l -8.2755,24.6972 -8.2734,-24.6972 h -22.3066 l -8.2755,24.6972 -8.2734,-24.6972 h -11.1544 z" /><path
         id="path161"
         style="fill:#ffffff;fill-opacity:1;stroke:none;stroke-width:5;stroke-dasharray:none"
         d="m 2150.8679,1088.8776 c -23.2442,0 -41.7266,16.3567 -41.7266,36.1658 0,19.8091 18.4824,36.1642 41.7266,36.1642 23.2444,0 41.7268,-16.3551 41.7268,-36.1642 0,-19.8091 -18.4824,-36.1658 -41.7268,-36.1658 z" /><path
         style="fill:#98302a;fill-opacity:1;stroke:none;stroke-width:5;stroke-dasharray:none"
         d="m 2195.0927,1124.8899 a 44.226398,38.665764 0 0 1 5e-4,0.01 v -0.01 z"
         id="path162" /><path
         style="fill:#ffffff;fill-opacity:1;stroke:none;stroke-width:5;stroke-dasharray:none"
         d="m 2170.2684,1020.8523 c -8.8147,0.01 -16.71,4.7238 -20.1896,11.8122 l -0.8339,1.6955 -28.5312,59.3788 c 8.2791,-6.209 18.8772,-9.844 30.1564,-9.865 14.0031,0 26.5583,5.5293 35.1157,14.2534 l -18.3405,-54.7362 h 16.4258 8.2724 l -0.01,-2.7926 c 0,-10.7912 -9.723,-19.7415 -22.0684,-19.7425 z"
         id="path163" /><path
         id="path164"
         style="fill:#ffffff;fill-opacity:1;stroke:none;stroke-width:5;stroke-dasharray:none"
         d="m 2294.9874,1088.8776 c -23.2443,0 -41.7267,16.3567 -41.7267,36.1658 0,19.8091 18.4824,36.1642 41.7267,36.1642 23.2443,0 41.7266,-16.3551 41.7266,-36.1642 0,-19.8091 -18.4823,-36.1658 -41.7266,-36.1658 z" /><path
         style="fill:#ffffff;fill-opacity:1;stroke:none;stroke-width:5;stroke-dasharray:none"
         d="m 2275.5869,1020.8559 v 0 c -12.3452,10e-4 -22.0684,8.9507 -22.0684,19.7419 l -0.01,2.789 h 8.2702 16.4279 l -18.3409,54.7383 c 8.5573,-8.7243 21.1127,-14.2519 35.1161,-14.2519 11.2787,0.021 21.8754,3.6572 30.1542,9.8656 l -28.5252,-59.3695 -0.8377,-1.7049 c -3.4796,-7.0882 -11.3747,-11.8027 -20.1896,-11.8127 z"
         id="path165" /></g><g
       id="g185"><rect
         style="fill:#000000;stroke:none;stroke-width:2"
         id="rect168"
         width="248.35352"
         height="248.35352"
         x="1829.1831"
         y="964.70087" /><path
         id="path168"
         style="fill:#17822c;fill-opacity:1;stroke:none;stroke-width:4.99999;stroke-dasharray:none"
         d="m 1905.0268,1046.2391 19.0469,56.8477 h 21.0117 l 8.2734,-24.6957 8.2754,24.6957 h 21.0117 l 19.0469,-56.8477 h -9.4785 -11.1523 l -8.2755,24.6972 -8.2734,-24.6972 h -22.3066 l -8.2755,24.6972 -8.2734,-24.6972 h -11.1544 z" /><path
         id="path169"
         style="fill:#98302a;fill-opacity:1;stroke:none;stroke-width:5;stroke-dasharray:none"
         d="m 1881.3001,1086.7255 c -23.2443,0 -41.7266,16.3567 -41.7266,36.1658 0,19.8091 18.4823,36.1642 41.7266,36.1642 23.2443,0 41.7267,-16.3551 41.7267,-36.1642 0,-19.8091 -18.4824,-36.1658 -41.7267,-36.1658 z" /><path
         style="fill:#98302a;fill-opacity:1;stroke:none;stroke-width:5;stroke-dasharray:none"
         d="m 1925.5248,1122.7378 a 44.226398,38.665764 0 0 1 5e-4,0.01 v -0.01 z"
         id="path170" /><path
         style="fill:#98302a;fill-opacity:1;stroke:none;stroke-width:5;stroke-dasharray:none"
         d="m 1900.7005,1018.7002 c -8.8147,0.01 -16.71,4.7238 -20.1895,11.8122 l -0.834,1.6955 -28.5311,59.3788 c 8.279,-6.209 18.8771,-9.844 30.1563,-9.865 14.0031,0 26.5583,5.5293 35.1157,14.2534 l -18.3405,-54.7362 h 16.4258 8.2724 l -0.01,-2.7926 c 0,-10.7912 -9.723,-19.7415 -22.0684,-19.7425 z"
         id="path171" /><path
         id="path172"
         style="fill:#98302a;fill-opacity:1;stroke:none;stroke-width:5;stroke-dasharray:none"
         d="m 2025.4195,1086.7255 c -23.2443,0 -41.7267,16.3567 -41.7267,36.1658 0,19.8091 18.4824,36.1642 41.7267,36.1642 23.2443,0 41.7266,-16.3551 41.7266,-36.1642 0,-19.8091 -18.4823,-36.1658 -41.7266,-36.1658 z" /><path
         style="fill:#98302a;fill-opacity:1;stroke:none;stroke-width:5;stroke-dasharray:none"
         d="m 2006.0191,1018.7038 v 0 c -12.3453,10e-4 -22.0685,8.9507 -22.0684,19.7419 l -0.01,2.789 h 8.2703 16.4279 l -18.341,54.7383 c 8.5574,-8.7243 21.1128,-14.2519 35.1162,-14.2519 11.2786,0.021 21.8754,3.6572 30.1542,9.8656 l -28.5253,-59.3695 -0.8377,-1.7049 c -3.4795,-7.0882 -11.3746,-11.8027 -20.1895,-11.8127 z"
         id="path173" /></g><g
       id="g187"><rect
         style="fill:#ffffff;stroke:none;stroke-width:2"
         id="rect173"
         width="248.35352"
         height="248.35352"
         x="1829.1831"
         y="1236.4207" /><path
         id="path174"
         style="fill:#17822c;fill-opacity:1;stroke:none;stroke-width:4.99999;stroke-dasharray:none"
         d="m 1905.0268,1317.959 19.0469,56.8477 h 21.0117 l 8.2734,-24.6957 8.2754,24.6957 h 21.0117 l 19.0469,-56.8477 h -9.4785 -11.1523 l -8.2755,24.6972 -8.2734,-24.6972 h -22.3066 l -8.2755,24.6972 -8.2734,-24.6972 h -11.1544 z" /><path
         id="path175"
         style="fill:#98302a;fill-opacity:1;stroke:none;stroke-width:5;stroke-dasharray:none"
         d="m 1881.3001,1358.4454 c -23.2443,0 -41.7266,16.3567 -41.7266,36.1658 0,19.809 18.4823,36.1641 41.7266,36.1641 23.2443,0 41.7267,-16.3551 41.7267,-36.1641 0,-19.8091 -18.4824,-36.1658 -41.7267,-36.1658 z" /><path
         style="fill:#98302a;fill-opacity:1;stroke:none;stroke-width:5;stroke-dasharray:none"
         d="m 1925.5248,1394.4576 a 44.226398,38.665764 0 0 1 5e-4,0.01 v -0.01 z"
         id="path176" /><path
         style="fill:#98302a;fill-opacity:1;stroke:none;stroke-width:5;stroke-dasharray:none"
         d="m 1900.7005,1290.4201 c -8.8147,0.01 -16.71,4.7238 -20.1895,11.8122 l -0.834,1.6955 -28.5311,59.3788 c 8.279,-6.209 18.8771,-9.844 30.1563,-9.865 14.0031,0 26.5583,5.5293 35.1157,14.2534 l -18.3405,-54.7362 h 16.4258 8.2724 l -0.01,-2.7926 c 0,-10.7912 -9.723,-19.7415 -22.0684,-19.7425 z"
         id="path177" /><path
         id="path178"
         style="fill:#98302a;fill-opacity:1;stroke:none;stroke-width:5;stroke-dasharray:none"
         d="m 2025.4195,1358.4454 c -23.2443,0 -41.7267,16.3567 -41.7267,36.1658 0,19.809 18.4824,36.1641 41.7267,36.1641 23.2443,0 41.7266,-16.3551 41.7266,-36.1641 0,-19.8091 -18.4823,-36.1658 -41.7266,-36.1658 z" /><path
         style="fill:#98302a;fill-opacity:1;stroke:none;stroke-width:5;stroke-dasharray:none"
         d="m 2006.0191,1290.4237 v 0 c -12.3453,10e-4 -22.0685,8.9507 -22.0684,19.7419 l -0.01,2.789 h 8.2703 16.4279 l -18.341,54.7383 c 8.5574,-8.7244 21.1128,-14.2519 35.1162,-14.2519 11.2786,0.021 21.8754,3.6572 30.1542,9.8656 l -28.5253,-59.3695 -0.8377,-1.7049 c -3.4795,-7.0882 -11.3746,-11.8027 -20.1895,-11.8127 z"
         id="path179" /></g><g
       id="g186"><rect
         style="fill:#000000;stroke:none;stroke-width:2"
         id="rect179"
         width="248.35352"
         height="248.35352"
         x="1829.1831"
         y="692.98108" /><path
         id="path180"
         style="fill:#98302a;fill-opacity:1;stroke:none;stroke-width:4.99999;stroke-dasharray:none"
         d="m 1905.0268,774.51931 19.0469,56.8477 h 21.0117 l 8.2734,-24.6957 8.2754,24.6957 h 21.0117 l 19.0469,-56.8477 h -9.4785 -11.1523 l -8.2755,24.6972 -8.2734,-24.6972 h -22.3066 l -8.2755,24.6972 -8.2734,-24.6972 h -11.1544 z" /><path
         id="path181"
         style="fill:#17822c;fill-opacity:1;stroke:none;stroke-width:5;stroke-dasharray:none"
         d="m 1881.3001,815.00571 c -23.2443,0 -41.7266,16.3567 -41.7266,36.1658 0,19.8091 18.4823,36.1642 41.7266,36.1642 23.2443,0 41.7267,-16.3551 41.7267,-36.1642 0,-19.8091 -18.4824,-36.1658 -41.7267,-36.1658 z" /><path
         style="fill:#98302a;fill-opacity:1;stroke:none;stroke-width:5;stroke-dasharray:none"
         d="m 1925.5248,851.01801 a 44.226398,38.665764 0 0 1 5e-4,0.01 v -0.01 z"
         id="path182" /><path
         style="fill:#17822c;fill-opacity:1;stroke:none;stroke-width:5;stroke-dasharray:none"
         d="m 1900.7005,746.98041 c -8.8147,0.01 -16.71,4.7238 -20.1895,11.8122 l -0.834,1.6955 -28.5311,59.3788 c 8.279,-6.209 18.8771,-9.844 30.1563,-9.865 14.0031,0 26.5583,5.5293 35.1157,14.2534 l -18.3405,-54.7362 h 16.4258 8.2724 l -0.01,-2.7926 c 0,-10.7912 -9.723,-19.7415 -22.0684,-19.7425 z"
         id="path183" /><path
         id="path184"
         style="fill:#17822c;fill-opacity:1;stroke:none;stroke-width:5;stroke-dasharray:none"
         d="m 2025.4195,815.00571 c -23.2443,0 -41.7267,16.3567 -41.7267,36.1658 0,19.8091 18.4824,36.1642 41.7267,36.1642 23.2443,0 41.7266,-16.3551 41.7266,-36.1642 0,-19.8091 -18.4823,-36.1658 -41.7266,-36.1658 z" /><path
         style="fill:#17822c;fill-opacity:1;stroke:none;stroke-width:5;stroke-dasharray:none"
         d="m 2006.0191,746.98401 v 0 c -12.3453,10e-4 -22.0685,8.9507 -22.0684,19.7419 l -0.01,2.789 h 8.2703 16.4279 l -18.341,54.7383 c 8.5574,-8.7243 21.1128,-14.2519 35.1162,-14.2519 11.2786,0.021 21.8754,3.6572 30.1542,9.8656 l -28.5253,-59.3695 -0.8377,-1.7049 c -3.4795,-7.0882 -11.3746,-11.8027 -20.1895,-11.8127 z"
         id="path185" /></g><text
       xml:space="preserve"
       style="font-size:140.562px;font-family:sans-serif;-inkscape-font-specification:'sans-serif, ';fill:#000000;fill-opacity:1;stroke-width:0.500003;stroke-linejoin:round"
       x="1949.8909"
       y="653.28082"
       id="text1"><tspan
         sodipodi:role="line"
         id="tspan1"
         style="text-align:center;text-anchor:middle;fill:#000000;fill-opacity:1;stroke-width:0.500003"
         x="1949.8909"
         y="653.28082">Plain, diffent colors</tspan></text><g
       id="g11"
       transform="translate(1349.1806)"><rect
         style="fill:#000000;stroke:none;stroke-width:2"
         id="rect1"
         width="248.35352"
         height="248.35352"
         x="1829.1831"
         y="964.70087" /><path
         id="path6"
         style="fill:#17822c;fill-opacity:1;stroke:none;stroke-width:4.99999;stroke-dasharray:none"
         d="m 1905.0268,1046.2391 19.0469,56.8477 h 21.0117 l 8.2734,-24.6957 8.2754,24.6957 h 21.0117 l 19.0469,-56.8477 h -9.4785 -11.1523 l -8.2755,24.6972 -8.2734,-24.6972 h -22.3066 l -8.2755,24.6972 -8.2734,-24.6972 h -11.1544 z" /><path
         id="path7"
         style="fill:#98302a;fill-opacity:1;stroke:none;stroke-width:5;stroke-dasharray:none"
         d="m 1881.3001,1086.7255 c -23.2443,0 -41.7266,16.3567 -41.7266,36.1658 0,19.8091 18.4823,36.1642 41.7266,36.1642 23.2443,0 41.7267,-16.3551 41.7267,-36.1642 0,-19.8091 -18.4824,-36.1658 -41.7267,-36.1658 z" /><path
         style="fill:#98302a;fill-opacity:1;stroke:none;stroke-width:5;stroke-dasharray:none"
         d="m 1925.5248,1122.7378 a 44.226398,38.665764 0 0 1 5e-4,0.01 v -0.01 z"
         id="path8" /><path
         style="fill:#98302a;fill-opacity:1;stroke:none;stroke-width:5;stroke-dasharray:none"
         d="m 1900.7005,1018.7002 c -8.8147,0.01 -16.71,4.7238 -20.1895,11.8122 l -0.834,1.6955 -28.5311,59.3788 c 8.279,-6.209 18.8771,-9.844 30.1563,-9.865 14.0031,0 26.5583,5.5293 35.1157,14.2534 l -18.3405,-54.7362 h 16.4258 8.2724 l -0.01,-2.7926 c 0,-10.7912 -9.723,-19.7415 -22.0684,-19.7425 z"
         id="path9" /><path
         id="path10"
         style="fill:#98302a;fill-opacity:1;stroke:none;stroke-width:5;stroke-dasharray:none"
         d="m 2025.4195,1086.7255 c -23.2443,0 -41.7267,16.3567 -41.7267,36.1658 0,19.8091 18.4824,36.1642 41.7267,36.1642 23.2443,0 41.7266,-16.3551 41.7266,-36.1642 0,-19.8091 -18.4823,-36.1658 -41.7266,-36.1658 z" /><path
         style="fill:#98302a;fill-opacity:1;stroke:none;stroke-width:5;stroke-dasharray:none"
         d="m 2006.0191,1018.7038 v 0 c -12.3453,10e-4 -22.0685,8.9507 -22.0684,19.7419 l -0.01,2.789 h 8.2703 16.4279 l -18.341,54.7383 c 8.5574,-8.7243 21.1128,-14.2519 35.1162,-14.2519 11.2786,0.021 21.8754,3.6572 30.1542,9.8656 l -28.5253,-59.3695 -0.8377,-1.7049 c -3.4795,-7.0882 -11.3746,-11.8027 -20.1895,-11.8127 z"
         id="path11" /></g><text
       xml:space="preserve"
       style="font-size:140.562px;font-family:sans-serif;-inkscape-font-specification:'sans-serif, ';fill:#000000;fill-opacity:1;stroke-width:0.500003;stroke-linejoin:round"
       x="3302.4375"
       y="653.27997"
       id="text11"><tspan
         sodipodi:role="line"
         id="tspan11"
         style="text-align:center;text-anchor:middle;fill:#000000;fill-opacity:1;stroke-width:0.500003"
         x="3302.4375"
         y="653.27997">GitLab Repo</tspan><tspan
         sodipodi:role="line"
         style="text-align:center;text-anchor:middle;fill:#000000;fill-opacity:1;stroke-width:0.500003"
         x="3302.4375"
         y="828.98248"
         id="tspan12">Icon</tspan></text><text
       xml:space="preserve"
       style="font-size:140.562px;font-family:sans-serif;-inkscape-font-specification:'sans-serif, ';fill:#000000;fill-opacity:1;stroke-width:0.500003;stroke-linejoin:round"
       x="3302.4375"
       y="1653.4751"
       id="text14"><tspan
         sodipodi:role="line"
         style="text-align:center;text-anchor:middle;fill:#000000;fill-opacity:1;stroke-width:0.500003"
         x="3302.4375"
         y="1653.4751"
         id="tspan14">Application</tspan><tspan
         sodipodi:role="line"
         style="text-align:center;text-anchor:middle;fill:#000000;fill-opacity:1;stroke-width:0.500003"
         x="3302.4375"
         y="1829.1776"
         id="tspan15">Icon</tspan></text><g
       id="g78"><rect
         style="fill:#808080;stroke:none;stroke-width:2;fill-opacity:1"
         id="rect168-5"
         width="248.35352"
         height="248.35352"
         x="2771.5645"
         y="1916.0861" /><g
         id="g5"
         transform="translate(945.5564,954.56024)"
         style="fill:#000000;fill-opacity:0.708013"><path
           id="path1"
           style="fill:#000000;fill-opacity:0.708013;stroke:none;stroke-width:4.99999;stroke-dasharray:none"
           d="m 1905.0268,1046.2391 19.0469,56.8477 h 21.0117 l 8.2734,-24.6957 8.2754,24.6957 h 21.0117 l 19.0469,-56.8477 h -9.4785 -11.1523 l -8.2755,24.6972 -8.2734,-24.6972 h -22.3066 l -8.2755,24.6972 -8.2734,-24.6972 h -11.1544 z" /><path
           id="path2"
           style="fill:#000000;fill-opacity:0.708013;stroke:none;stroke-width:5;stroke-dasharray:none"
           d="m 1881.3001,1086.7255 c -23.2443,0 -41.7266,16.3567 -41.7266,36.1658 0,19.8091 18.4823,36.1642 41.7266,36.1642 23.2443,0 41.7267,-16.3551 41.7267,-36.1642 0,-19.8091 -18.4824,-36.1658 -41.7267,-36.1658 z" /><path
           style="fill:#000000;fill-opacity:0.708013;stroke:none;stroke-width:5;stroke-dasharray:none"
           d="m 1900.7005,1018.7002 c -8.8147,0.01 -16.71,4.7238 -20.1895,11.8122 l -0.834,1.6955 -28.5311,59.3788 c 8.279,-6.209 18.8771,-9.844 30.1563,-9.865 14.0031,0 26.5583,5.5293 35.1157,14.2534 l -18.3405,-54.7362 h 16.4258 8.2724 l -0.01,-2.7926 c 0,-10.7912 -9.723,-19.7415 -22.0684,-19.7425 z"
           id="path3" /><path
           id="path4"
           style="fill:#000000;fill-opacity:0.708013;stroke:none;stroke-width:5;stroke-dasharray:none"
           d="m 2025.4195,1086.7255 c -23.2443,0 -41.7267,16.3567 -41.7267,36.1658 0,19.8091 18.4824,36.1642 41.7267,36.1642 23.2443,0 41.7266,-16.3551 41.7266,-36.1642 0,-19.8091 -18.4823,-36.1658 -41.7266,-36.1658 z" /><path
           style="fill:#000000;fill-opacity:0.708013;stroke:none;stroke-width:5;stroke-dasharray:none"
           d="m 2006.0191,1018.7038 v 0 c -12.3453,10e-4 -22.0685,8.9507 -22.0684,19.7419 l -0.01,2.789 h 8.2703 16.4279 l -18.341,54.7383 c 8.5574,-8.7243 21.1128,-14.2519 35.1162,-14.2519 11.2786,0.021 21.8754,3.6572 30.1542,9.8656 l -28.5253,-59.3695 -0.8377,-1.7049 c -3.4795,-7.0882 -11.3746,-11.8027 -20.1895,-11.8127 z"
           id="path5" /></g><path
         style="fill:#98302a;fill-opacity:1;stroke:none;stroke-width:5;stroke-dasharray:none"
         d="m 2867.9062,2074.1231 a 44.226398,38.665764 0 0 1 5e-4,0.01 v -0.01 z"
         id="path170-3" /><g
         id="g2"
         transform="translate(942.3814,951.38524)"><path
           id="path168-5"
           style="fill:#17822c;fill-opacity:1;stroke:none;stroke-width:4.99999;stroke-dasharray:none"
           d="m 1905.0268,1046.2391 19.0469,56.8477 h 21.0117 l 8.2734,-24.6957 8.2754,24.6957 h 21.0117 l 19.0469,-56.8477 h -9.4785 -11.1523 l -8.2755,24.6972 -8.2734,-24.6972 h -22.3066 l -8.2755,24.6972 -8.2734,-24.6972 h -11.1544 z" /><path
           id="path169-6"
           style="fill:#98302a;fill-opacity:1;stroke:none;stroke-width:5;stroke-dasharray:none"
           d="m 1881.3001,1086.7255 c -23.2443,0 -41.7266,16.3567 -41.7266,36.1658 0,19.8091 18.4823,36.1642 41.7266,36.1642 23.2443,0 41.7267,-16.3551 41.7267,-36.1642 0,-19.8091 -18.4824,-36.1658 -41.7267,-36.1658 z" /><path
           style="fill:#98302a;fill-opacity:1;stroke:none;stroke-width:5;stroke-dasharray:none"
           d="m 1900.7005,1018.7002 c -8.8147,0.01 -16.71,4.7238 -20.1895,11.8122 l -0.834,1.6955 -28.5311,59.3788 c 8.279,-6.209 18.8771,-9.844 30.1563,-9.865 14.0031,0 26.5583,5.5293 35.1157,14.2534 l -18.3405,-54.7362 h 16.4258 8.2724 l -0.01,-2.7926 c 0,-10.7912 -9.723,-19.7415 -22.0684,-19.7425 z"
           id="path171-2" /><path
           id="path172-9"
           style="fill:#98302a;fill-opacity:1;stroke:none;stroke-width:5;stroke-dasharray:none"
           d="m 2025.4195,1086.7255 c -23.2443,0 -41.7267,16.3567 -41.7267,36.1658 0,19.8091 18.4824,36.1642 41.7267,36.1642 23.2443,0 41.7266,-16.3551 41.7266,-36.1642 0,-19.8091 -18.4823,-36.1658 -41.7266,-36.1658 z" /><path
           style="fill:#98302a;fill-opacity:1;stroke:none;stroke-width:5;stroke-dasharray:none"
           d="m 2006.0191,1018.7038 v 0 c -12.3453,10e-4 -22.0685,8.9507 -22.0684,19.7419 l -0.01,2.789 h 8.2703 16.4279 l -18.341,54.7383 c 8.5574,-8.7243 21.1128,-14.2519 35.1162,-14.2519 11.2786,0.021 21.8754,3.6572 30.1542,9.8656 l -28.5253,-59.3695 -0.8377,-1.7049 c -3.4795,-7.0882 -11.3746,-11.8027 -20.1895,-11.8127 z"
           id="path173-1" /></g></g><g
       id="g82"><rect
         style="fill:#808080;stroke:none;stroke-width:2;fill-opacity:1"
         id="rect2"
         width="248.35352"
         height="248.35352"
         x="3574.113"
         y="1916.0861" /><g
         id="g16"
         transform="translate(1748.1051,954.56024)"
         style="fill:#000000;fill-opacity:0.708013"><path
           id="path12"
           style="fill:#000000;fill-opacity:0.708013;stroke:none;stroke-width:4.99999;stroke-dasharray:none"
           d="m 1905.0268,1046.2391 19.0469,56.8477 h 21.0117 l 8.2734,-24.6957 8.2754,24.6957 h 21.0117 l 19.0469,-56.8477 h -9.4785 -11.1523 l -8.2755,24.6972 -8.2734,-24.6972 h -22.3066 l -8.2755,24.6972 -8.2734,-24.6972 h -11.1544 z" /><path
           id="path13"
           style="fill:#000000;fill-opacity:0.708013;stroke:none;stroke-width:5;stroke-dasharray:none"
           d="m 1881.3001,1086.7255 c -23.2443,0 -41.7266,16.3567 -41.7266,36.1658 0,19.8091 18.4823,36.1642 41.7266,36.1642 23.2443,0 41.7267,-16.3551 41.7267,-36.1642 0,-19.8091 -18.4824,-36.1658 -41.7267,-36.1658 z" /><path
           style="fill:#000000;fill-opacity:0.708013;stroke:none;stroke-width:5;stroke-dasharray:none"
           d="m 1900.7005,1018.7002 c -8.8147,0.01 -16.71,4.7238 -20.1895,11.8122 l -0.834,1.6955 -28.5311,59.3788 c 8.279,-6.209 18.8771,-9.844 30.1563,-9.865 14.0031,0 26.5583,5.5293 35.1157,14.2534 l -18.3405,-54.7362 h 16.4258 8.2724 l -0.01,-2.7926 c 0,-10.7912 -9.723,-19.7415 -22.0684,-19.7425 z"
           id="path14" /><path
           id="path15"
           style="fill:#000000;fill-opacity:0.708013;stroke:none;stroke-width:5;stroke-dasharray:none"
           d="m 2025.4195,1086.7255 c -23.2443,0 -41.7267,16.3567 -41.7267,36.1658 0,19.8091 18.4824,36.1642 41.7267,36.1642 23.2443,0 41.7266,-16.3551 41.7266,-36.1642 0,-19.8091 -18.4823,-36.1658 -41.7266,-36.1658 z" /><path
           style="fill:#000000;fill-opacity:0.708013;stroke:none;stroke-width:5;stroke-dasharray:none"
           d="m 2006.0191,1018.7038 v 0 c -12.3453,10e-4 -22.0685,8.9507 -22.0684,19.7419 l -0.01,2.789 h 8.2703 16.4279 l -18.341,54.7383 c 8.5574,-8.7243 21.1128,-14.2519 35.1162,-14.2519 11.2786,0.021 21.8754,3.6572 30.1542,9.8656 l -28.5253,-59.3695 -0.8377,-1.7049 c -3.4795,-7.0882 -11.3746,-11.8027 -20.1895,-11.8127 z"
           id="path16" /></g><path
         style="fill:#ac7b16;fill-opacity:1;stroke:none;stroke-width:5;stroke-dasharray:none"
         d="m 3670.4549,2074.1231 a 44.226398,38.665764 0 0 1 5e-4,0.01 v -0.01 z"
         id="path17" /><g
         id="g22"
         transform="translate(1744.9301,951.38524)"
         style="fill:#ac7b16;fill-opacity:1"><path
           id="path18"
           style="fill:#ac7b16;fill-opacity:1;stroke:none;stroke-width:4.99999;stroke-dasharray:none"
           d="m 1905.0268,1046.2391 19.0469,56.8477 h 21.0117 l 8.2734,-24.6957 8.2754,24.6957 h 21.0117 l 19.0469,-56.8477 h -9.4785 -11.1523 l -8.2755,24.6972 -8.2734,-24.6972 h -22.3066 l -8.2755,24.6972 -8.2734,-24.6972 h -11.1544 z" /><path
           id="path19"
           style="fill:#ac7b16;fill-opacity:1;stroke:none;stroke-width:5;stroke-dasharray:none"
           d="m 1881.3001,1086.7255 c -23.2443,0 -41.7266,16.3567 -41.7266,36.1658 0,19.8091 18.4823,36.1642 41.7266,36.1642 23.2443,0 41.7267,-16.3551 41.7267,-36.1642 0,-19.8091 -18.4824,-36.1658 -41.7267,-36.1658 z" /><path
           style="fill:#ac7b16;fill-opacity:1;stroke:none;stroke-width:5;stroke-dasharray:none"
           d="m 1900.7005,1018.7002 c -8.8147,0.01 -16.71,4.7238 -20.1895,11.8122 l -0.834,1.6955 -28.5311,59.3788 c 8.279,-6.209 18.8771,-9.844 30.1563,-9.865 14.0031,0 26.5583,5.5293 35.1157,14.2534 l -18.3405,-54.7362 h 16.4258 8.2724 l -0.01,-2.7926 c 0,-10.7912 -9.723,-19.7415 -22.0684,-19.7425 z"
           id="path20" /><path
           id="path21"
           style="fill:#ac7b16;fill-opacity:1;stroke:none;stroke-width:5;stroke-dasharray:none"
           d="m 2025.4195,1086.7255 c -23.2443,0 -41.7267,16.3567 -41.7267,36.1658 0,19.8091 18.4824,36.1642 41.7267,36.1642 23.2443,0 41.7266,-16.3551 41.7266,-36.1642 0,-19.8091 -18.4823,-36.1658 -41.7266,-36.1658 z" /><path
           style="fill:#ac7b16;fill-opacity:1;stroke:none;stroke-width:5;stroke-dasharray:none"
           d="m 2006.0191,1018.7038 v 0 c -12.3453,10e-4 -22.0685,8.9507 -22.0684,19.7419 l -0.01,2.789 h 8.2703 16.4279 l -18.341,54.7383 c 8.5574,-8.7243 21.1128,-14.2519 35.1162,-14.2519 11.2786,0.021 21.8754,3.6572 30.1542,9.8656 l -28.5253,-59.3695 -0.8377,-1.7049 c -3.4795,-7.0882 -11.3746,-11.8027 -20.1895,-11.8127 z"
           id="path22" /></g></g><g
       id="g83"><rect
         style="fill:#808080;stroke:none;stroke-width:2;fill-opacity:1"
         id="rect23"
         width="248.35352"
         height="248.35352"
         x="3306.5967"
         y="1916.0861" /><g
         id="g27"
         transform="translate(1480.5888,954.56024)"
         style="fill:#000000;fill-opacity:0.708013"><path
           id="path23"
           style="fill:#000000;fill-opacity:0.708013;stroke:none;stroke-width:4.99999;stroke-dasharray:none"
           d="m 1905.0268,1046.2391 19.0469,56.8477 h 21.0117 l 8.2734,-24.6957 8.2754,24.6957 h 21.0117 l 19.0469,-56.8477 h -9.4785 -11.1523 l -8.2755,24.6972 -8.2734,-24.6972 h -22.3066 l -8.2755,24.6972 -8.2734,-24.6972 h -11.1544 z" /><path
           id="path24"
           style="fill:#000000;fill-opacity:0.708013;stroke:none;stroke-width:5;stroke-dasharray:none"
           d="m 1881.3001,1086.7255 c -23.2443,0 -41.7266,16.3567 -41.7266,36.1658 0,19.8091 18.4823,36.1642 41.7266,36.1642 23.2443,0 41.7267,-16.3551 41.7267,-36.1642 0,-19.8091 -18.4824,-36.1658 -41.7267,-36.1658 z" /><path
           style="fill:#000000;fill-opacity:0.708013;stroke:none;stroke-width:5;stroke-dasharray:none"
           d="m 1900.7005,1018.7002 c -8.8147,0.01 -16.71,4.7238 -20.1895,11.8122 l -0.834,1.6955 -28.5311,59.3788 c 8.279,-6.209 18.8771,-9.844 30.1563,-9.865 14.0031,0 26.5583,5.5293 35.1157,14.2534 l -18.3405,-54.7362 h 16.4258 8.2724 l -0.01,-2.7926 c 0,-10.7912 -9.723,-19.7415 -22.0684,-19.7425 z"
           id="path25" /><path
           id="path26"
           style="fill:#000000;fill-opacity:0.708013;stroke:none;stroke-width:5;stroke-dasharray:none"
           d="m 2025.4195,1086.7255 c -23.2443,0 -41.7267,16.3567 -41.7267,36.1658 0,19.8091 18.4824,36.1642 41.7267,36.1642 23.2443,0 41.7266,-16.3551 41.7266,-36.1642 0,-19.8091 -18.4823,-36.1658 -41.7266,-36.1658 z" /><path
           style="fill:#000000;fill-opacity:0.708013;stroke:none;stroke-width:5;stroke-dasharray:none"
           d="m 2006.0191,1018.7038 v 0 c -12.3453,10e-4 -22.0685,8.9507 -22.0684,19.7419 l -0.01,2.789 h 8.2703 16.4279 l -18.341,54.7383 c 8.5574,-8.7243 21.1128,-14.2519 35.1162,-14.2519 11.2786,0.021 21.8754,3.6572 30.1542,9.8656 l -28.5253,-59.3695 -0.8377,-1.7049 c -3.4795,-7.0882 -11.3746,-11.8027 -20.1895,-11.8127 z"
           id="path27" /></g><path
         style="fill:#ac7b16;fill-opacity:1;stroke:none;stroke-width:5;stroke-dasharray:none"
         d="m 3402.9386,2074.1231 a 44.226398,38.665764 0 0 1 5e-4,0.01 v -0.01 z"
         id="path28" /><g
         id="g33"
         transform="translate(1477.4138,951.38524)"
         style="fill:#98302a;fill-opacity:1"><path
           id="path29"
           style="fill:#98302a;fill-opacity:1;stroke:none;stroke-width:4.99999;stroke-dasharray:none"
           d="m 1905.0268,1046.2391 19.0469,56.8477 h 21.0117 l 8.2734,-24.6957 8.2754,24.6957 h 21.0117 l 19.0469,-56.8477 h -9.4785 -11.1523 l -8.2755,24.6972 -8.2734,-24.6972 h -22.3066 l -8.2755,24.6972 -8.2734,-24.6972 h -11.1544 z" /><path
           id="path30"
           style="fill:#98302a;fill-opacity:1;stroke:none;stroke-width:5;stroke-dasharray:none"
           d="m 1881.3001,1086.7255 c -23.2443,0 -41.7266,16.3567 -41.7266,36.1658 0,19.8091 18.4823,36.1642 41.7266,36.1642 23.2443,0 41.7267,-16.3551 41.7267,-36.1642 0,-19.8091 -18.4824,-36.1658 -41.7267,-36.1658 z" /><path
           style="fill:#98302a;fill-opacity:1;stroke:none;stroke-width:5;stroke-dasharray:none"
           d="m 1900.7005,1018.7002 c -8.8147,0.01 -16.71,4.7238 -20.1895,11.8122 l -0.834,1.6955 -28.5311,59.3788 c 8.279,-6.209 18.8771,-9.844 30.1563,-9.865 14.0031,0 26.5583,5.5293 35.1157,14.2534 l -18.3405,-54.7362 h 16.4258 8.2724 l -0.01,-2.7926 c 0,-10.7912 -9.723,-19.7415 -22.0684,-19.7425 z"
           id="path31" /><path
           id="path32"
           style="fill:#98302a;fill-opacity:1;stroke:none;stroke-width:5;stroke-dasharray:none"
           d="m 2025.4195,1086.7255 c -23.2443,0 -41.7267,16.3567 -41.7267,36.1658 0,19.8091 18.4824,36.1642 41.7267,36.1642 23.2443,0 41.7266,-16.3551 41.7266,-36.1642 0,-19.8091 -18.4823,-36.1658 -41.7266,-36.1658 z" /><path
           style="fill:#98302a;fill-opacity:1;stroke:none;stroke-width:5;stroke-dasharray:none"
           d="m 2006.0191,1018.7038 v 0 c -12.3453,10e-4 -22.0685,8.9507 -22.0684,19.7419 l -0.01,2.789 h 8.2703 16.4279 l -18.341,54.7383 c 8.5574,-8.7243 21.1128,-14.2519 35.1162,-14.2519 11.2786,0.021 21.8754,3.6572 30.1542,9.8656 l -28.5253,-59.3695 -0.8377,-1.7049 c -3.4795,-7.0882 -11.3746,-11.8027 -20.1895,-11.8127 z"
           id="path33" /></g></g><g
       id="g84"><rect
         style="fill:#808080;stroke:none;stroke-width:2;fill-opacity:1"
         id="rect33"
         width="248.35352"
         height="248.35352"
         x="3039.0806"
         y="1916.0861" /><g
         id="g38"
         transform="translate(1213.0727,954.56024)"
         style="fill:#000000;fill-opacity:0.708013"><path
           id="path34"
           style="fill:#000000;fill-opacity:0.708013;stroke:none;stroke-width:4.99999;stroke-dasharray:none"
           d="m 1905.0268,1046.2391 19.0469,56.8477 h 21.0117 l 8.2734,-24.6957 8.2754,24.6957 h 21.0117 l 19.0469,-56.8477 h -9.4785 -11.1523 l -8.2755,24.6972 -8.2734,-24.6972 h -22.3066 l -8.2755,24.6972 -8.2734,-24.6972 h -11.1544 z" /><path
           id="path35"
           style="fill:#000000;fill-opacity:0.708013;stroke:none;stroke-width:5;stroke-dasharray:none"
           d="m 1881.3001,1086.7255 c -23.2443,0 -41.7266,16.3567 -41.7266,36.1658 0,19.8091 18.4823,36.1642 41.7266,36.1642 23.2443,0 41.7267,-16.3551 41.7267,-36.1642 0,-19.8091 -18.4824,-36.1658 -41.7267,-36.1658 z" /><path
           style="fill:#000000;fill-opacity:0.708013;stroke:none;stroke-width:5;stroke-dasharray:none"
           d="m 1900.7005,1018.7002 c -8.8147,0.01 -16.71,4.7238 -20.1895,11.8122 l -0.834,1.6955 -28.5311,59.3788 c 8.279,-6.209 18.8771,-9.844 30.1563,-9.865 14.0031,0 26.5583,5.5293 35.1157,14.2534 l -18.3405,-54.7362 h 16.4258 8.2724 l -0.01,-2.7926 c 0,-10.7912 -9.723,-19.7415 -22.0684,-19.7425 z"
           id="path36" /><path
           id="path37"
           style="fill:#000000;fill-opacity:0.708013;stroke:none;stroke-width:5;stroke-dasharray:none"
           d="m 2025.4195,1086.7255 c -23.2443,0 -41.7267,16.3567 -41.7267,36.1658 0,19.8091 18.4824,36.1642 41.7267,36.1642 23.2443,0 41.7266,-16.3551 41.7266,-36.1642 0,-19.8091 -18.4823,-36.1658 -41.7266,-36.1658 z" /><path
           style="fill:#000000;fill-opacity:0.708013;stroke:none;stroke-width:5;stroke-dasharray:none"
           d="m 2006.0191,1018.7038 v 0 c -12.3453,10e-4 -22.0685,8.9507 -22.0684,19.7419 l -0.01,2.789 h 8.2703 16.4279 l -18.341,54.7383 c 8.5574,-8.7243 21.1128,-14.2519 35.1162,-14.2519 11.2786,0.021 21.8754,3.6572 30.1542,9.8656 l -28.5253,-59.3695 -0.8377,-1.7049 c -3.4795,-7.0882 -11.3746,-11.8027 -20.1895,-11.8127 z"
           id="path38" /></g><path
         style="fill:#ac7b16;fill-opacity:1;stroke:none;stroke-width:5;stroke-dasharray:none"
         d="m 3135.4225,2074.1231 a 44.226398,38.665764 0 0 1 5e-4,0.01 v -0.01 z"
         id="path39" /><g
         id="g44"
         transform="translate(1209.8977,951.38524)"
         style="fill:#17822c;fill-opacity:1"><path
           id="path40"
           style="fill:#17822c;fill-opacity:1;stroke:none;stroke-width:4.99999;stroke-dasharray:none"
           d="m 1905.0268,1046.2391 19.0469,56.8477 h 21.0117 l 8.2734,-24.6957 8.2754,24.6957 h 21.0117 l 19.0469,-56.8477 h -9.4785 -11.1523 l -8.2755,24.6972 -8.2734,-24.6972 h -22.3066 l -8.2755,24.6972 -8.2734,-24.6972 h -11.1544 z" /><path
           id="path41"
           style="fill:#17822c;fill-opacity:1;stroke:none;stroke-width:5;stroke-dasharray:none"
           d="m 1881.3001,1086.7255 c -23.2443,0 -41.7266,16.3567 -41.7266,36.1658 0,19.8091 18.4823,36.1642 41.7266,36.1642 23.2443,0 41.7267,-16.3551 41.7267,-36.1642 0,-19.8091 -18.4824,-36.1658 -41.7267,-36.1658 z" /><path
           style="fill:#17822c;fill-opacity:1;stroke:none;stroke-width:5;stroke-dasharray:none"
           d="m 1900.7005,1018.7002 c -8.8147,0.01 -16.71,4.7238 -20.1895,11.8122 l -0.834,1.6955 -28.5311,59.3788 c 8.279,-6.209 18.8771,-9.844 30.1563,-9.865 14.0031,0 26.5583,5.5293 35.1157,14.2534 l -18.3405,-54.7362 h 16.4258 8.2724 l -0.01,-2.7926 c 0,-10.7912 -9.723,-19.7415 -22.0684,-19.7425 z"
           id="path42" /><path
           id="path43"
           style="fill:#17822c;fill-opacity:1;stroke:none;stroke-width:5;stroke-dasharray:none"
           d="m 2025.4195,1086.7255 c -23.2443,0 -41.7267,16.3567 -41.7267,36.1658 0,19.8091 18.4824,36.1642 41.7267,36.1642 23.2443,0 41.7266,-16.3551 41.7266,-36.1642 0,-19.8091 -18.4823,-36.1658 -41.7266,-36.1658 z" /><path
           style="fill:#17822c;fill-opacity:1;stroke:none;stroke-width:5;stroke-dasharray:none"
           d="m 2006.0191,1018.7038 v 0 c -12.3453,10e-4 -22.0685,8.9507 -22.0684,19.7419 l -0.01,2.789 h 8.2703 16.4279 l -18.341,54.7383 c 8.5574,-8.7243 21.1128,-14.2519 35.1162,-14.2519 11.2786,0.021 21.8754,3.6572 30.1542,9.8656 l -28.5253,-59.3695 -0.8377,-1.7049 c -3.4795,-7.0882 -11.3746,-11.8027 -20.1895,-11.8127 z"
           id="path44" /></g></g><g
       id="g79"><rect
         style="fill:#808080;stroke:none;stroke-width:2;fill-opacity:1"
         id="rect45"
         width="248.35352"
         height="248.35352"
         x="2771.5645"
         y="2186.2778" /><g
         id="g49"
         transform="translate(945.5564,1224.7519)"
         style="fill:#000000;fill-opacity:0.708013"><path
           id="path45"
           style="fill:#000000;fill-opacity:0.708013;stroke:none;stroke-width:4.99999;stroke-dasharray:none"
           d="m 1905.0268,1046.2391 19.0469,56.8477 h 21.0117 l 8.2734,-24.6957 8.2754,24.6957 h 21.0117 l 19.0469,-56.8477 h -9.4785 -11.1523 l -8.2755,24.6972 -8.2734,-24.6972 h -22.3066 l -8.2755,24.6972 -8.2734,-24.6972 h -11.1544 z" /><path
           id="path46"
           style="fill:#000000;fill-opacity:0.708013;stroke:none;stroke-width:5;stroke-dasharray:none"
           d="m 1881.3001,1086.7255 c -23.2443,0 -41.7266,16.3567 -41.7266,36.1658 0,19.8091 18.4823,36.1642 41.7266,36.1642 23.2443,0 41.7267,-16.3551 41.7267,-36.1642 0,-19.8091 -18.4824,-36.1658 -41.7267,-36.1658 z" /><path
           style="fill:#000000;fill-opacity:0.708013;stroke:none;stroke-width:5;stroke-dasharray:none"
           d="m 1900.7005,1018.7002 c -8.8147,0.01 -16.71,4.7238 -20.1895,11.8122 l -0.834,1.6955 -28.5311,59.3788 c 8.279,-6.209 18.8771,-9.844 30.1563,-9.865 14.0031,0 26.5583,5.5293 35.1157,14.2534 l -18.3405,-54.7362 h 16.4258 8.2724 l -0.01,-2.7926 c 0,-10.7912 -9.723,-19.7415 -22.0684,-19.7425 z"
           id="path47" /><path
           id="path48"
           style="fill:#000000;fill-opacity:0.708013;stroke:none;stroke-width:5;stroke-dasharray:none"
           d="m 2025.4195,1086.7255 c -23.2443,0 -41.7267,16.3567 -41.7267,36.1658 0,19.8091 18.4824,36.1642 41.7267,36.1642 23.2443,0 41.7266,-16.3551 41.7266,-36.1642 0,-19.8091 -18.4823,-36.1658 -41.7266,-36.1658 z" /><path
           style="fill:#000000;fill-opacity:0.708013;stroke:none;stroke-width:5;stroke-dasharray:none"
           d="m 2006.0191,1018.7038 v 0 c -12.3453,10e-4 -22.0685,8.9507 -22.0684,19.7419 l -0.01,2.789 h 8.2703 16.4279 l -18.341,54.7383 c 8.5574,-8.7243 21.1128,-14.2519 35.1162,-14.2519 11.2786,0.021 21.8754,3.6572 30.1542,9.8656 l -28.5253,-59.3695 -0.8377,-1.7049 c -3.4795,-7.0882 -11.3746,-11.8027 -20.1895,-11.8127 z"
           id="path49" /></g><path
         style="fill:#98302a;fill-opacity:1;stroke:none;stroke-width:5;stroke-dasharray:none"
         d="m 2867.9062,2344.3148 a 44.226398,38.665764 0 0 1 5e-4,0.01 v -0.01 z"
         id="path50" /><g
         id="g55"
         transform="translate(942.3814,1221.5769)"
         style="fill:#1a1a1a"><path
           id="path51"
           style="fill:#1a1a1a;fill-opacity:1;stroke:none;stroke-width:4.99999;stroke-dasharray:none"
           d="m 1905.0268,1046.2391 19.0469,56.8477 h 21.0117 l 8.2734,-24.6957 8.2754,24.6957 h 21.0117 l 19.0469,-56.8477 h -9.4785 -11.1523 l -8.2755,24.6972 -8.2734,-24.6972 h -22.3066 l -8.2755,24.6972 -8.2734,-24.6972 h -11.1544 z" /><path
           id="path52"
           style="fill:#1a1a1a;fill-opacity:1;stroke:none;stroke-width:5;stroke-dasharray:none"
           d="m 1881.3001,1086.7255 c -23.2443,0 -41.7266,16.3567 -41.7266,36.1658 0,19.8091 18.4823,36.1642 41.7266,36.1642 23.2443,0 41.7267,-16.3551 41.7267,-36.1642 0,-19.8091 -18.4824,-36.1658 -41.7267,-36.1658 z" /><path
           style="fill:#1a1a1a;fill-opacity:1;stroke:none;stroke-width:5;stroke-dasharray:none"
           d="m 1900.7005,1018.7002 c -8.8147,0.01 -16.71,4.7238 -20.1895,11.8122 l -0.834,1.6955 -28.5311,59.3788 c 8.279,-6.209 18.8771,-9.844 30.1563,-9.865 14.0031,0 26.5583,5.5293 35.1157,14.2534 l -18.3405,-54.7362 h 16.4258 8.2724 l -0.01,-2.7926 c 0,-10.7912 -9.723,-19.7415 -22.0684,-19.7425 z"
           id="path53" /><path
           id="path54"
           style="fill:#1a1a1a;fill-opacity:1;stroke:none;stroke-width:5;stroke-dasharray:none"
           d="m 2025.4195,1086.7255 c -23.2443,0 -41.7267,16.3567 -41.7267,36.1658 0,19.8091 18.4824,36.1642 41.7267,36.1642 23.2443,0 41.7266,-16.3551 41.7266,-36.1642 0,-19.8091 -18.4823,-36.1658 -41.7266,-36.1658 z" /><path
           style="fill:#1a1a1a;fill-opacity:1;stroke:none;stroke-width:5;stroke-dasharray:none"
           d="m 2006.0191,1018.7038 v 0 c -12.3453,10e-4 -22.0685,8.9507 -22.0684,19.7419 l -0.01,2.789 h 8.2703 16.4279 l -18.341,54.7383 c 8.5574,-8.7243 21.1128,-14.2519 35.1162,-14.2519 11.2786,0.021 21.8754,3.6572 30.1542,9.8656 l -28.5253,-59.3695 -0.8377,-1.7049 c -3.4795,-7.0882 -11.3746,-11.8027 -20.1895,-11.8127 z"
           id="path55" /></g></g><g
       id="g80"><rect
         style="fill:#808080;stroke:none;stroke-width:2"
         id="rect56"
         width="248.35352"
         height="248.35352"
         x="3039.0806"
         y="2186.2778" /><g
         id="g60"
         transform="translate(1213.0727,1224.752)"
         style="fill:#000000;fill-opacity:0.708013"><path
           id="path56"
           style="fill:#000000;fill-opacity:0.708013;stroke:none;stroke-width:4.99999;stroke-dasharray:none"
           d="m 1905.0268,1046.2391 19.0469,56.8477 h 21.0117 l 8.2734,-24.6957 8.2754,24.6957 h 21.0117 l 19.0469,-56.8477 h -9.4785 -11.1523 l -8.2755,24.6972 -8.2734,-24.6972 h -22.3066 l -8.2755,24.6972 -8.2734,-24.6972 h -11.1544 z" /><path
           id="path57"
           style="fill:#000000;fill-opacity:0.708013;stroke:none;stroke-width:5;stroke-dasharray:none"
           d="m 1881.3001,1086.7255 c -23.2443,0 -41.7266,16.3567 -41.7266,36.1658 0,19.8091 18.4823,36.1642 41.7266,36.1642 23.2443,0 41.7267,-16.3551 41.7267,-36.1642 0,-19.8091 -18.4824,-36.1658 -41.7267,-36.1658 z" /><path
           style="fill:#000000;fill-opacity:0.708013;stroke:none;stroke-width:5;stroke-dasharray:none"
           d="m 1900.7005,1018.7002 c -8.8147,0.01 -16.71,4.7238 -20.1895,11.8122 l -0.834,1.6955 -28.5311,59.3788 c 8.279,-6.209 18.8771,-9.844 30.1563,-9.865 14.0031,0 26.5583,5.5293 35.1157,14.2534 l -18.3405,-54.7362 h 16.4258 8.2724 l -0.01,-2.7926 c 0,-10.7912 -9.723,-19.7415 -22.0684,-19.7425 z"
           id="path58" /><path
           id="path59"
           style="fill:#000000;fill-opacity:0.708013;stroke:none;stroke-width:5;stroke-dasharray:none"
           d="m 2025.4195,1086.7255 c -23.2443,0 -41.7267,16.3567 -41.7267,36.1658 0,19.8091 18.4824,36.1642 41.7267,36.1642 23.2443,0 41.7266,-16.3551 41.7266,-36.1642 0,-19.8091 -18.4823,-36.1658 -41.7266,-36.1658 z" /><path
           style="fill:#000000;fill-opacity:0.708013;stroke:none;stroke-width:5;stroke-dasharray:none"
           d="m 2006.0191,1018.7038 v 0 c -12.3453,10e-4 -22.0685,8.9507 -22.0684,19.7419 l -0.01,2.789 h 8.2703 16.4279 l -18.341,54.7383 c 8.5574,-8.7243 21.1128,-14.2519 35.1162,-14.2519 11.2786,0.021 21.8754,3.6572 30.1542,9.8656 l -28.5253,-59.3695 -0.8377,-1.7049 c -3.4795,-7.0882 -11.3746,-11.8027 -20.1895,-11.8127 z"
           id="path60" /></g><path
         style="fill:#ac7b16;fill-opacity:1;stroke:none;stroke-width:5;stroke-dasharray:none"
         d="m 3135.4225,2344.3148 a 44.226398,38.665764 0 0 1 5e-4,0.01 v -0.01 z"
         id="path61" /><g
         id="g66"
         transform="translate(1209.8977,1221.577)"
         style="fill:#ffffff;fill-opacity:1"><path
           id="path62"
           style="fill:#ffffff;fill-opacity:1;stroke:none;stroke-width:4.99999;stroke-dasharray:none"
           d="m 1905.0268,1046.2391 19.0469,56.8477 h 21.0117 l 8.2734,-24.6957 8.2754,24.6957 h 21.0117 l 19.0469,-56.8477 h -9.4785 -11.1523 l -8.2755,24.6972 -8.2734,-24.6972 h -22.3066 l -8.2755,24.6972 -8.2734,-24.6972 h -11.1544 z" /><path
           id="path63"
           style="fill:#ffffff;fill-opacity:1;stroke:none;stroke-width:5;stroke-dasharray:none"
           d="m 1881.3001,1086.7255 c -23.2443,0 -41.7266,16.3567 -41.7266,36.1658 0,19.8091 18.4823,36.1642 41.7266,36.1642 23.2443,0 41.7267,-16.3551 41.7267,-36.1642 0,-19.8091 -18.4824,-36.1658 -41.7267,-36.1658 z" /><path
           style="fill:#ffffff;fill-opacity:1;stroke:none;stroke-width:5;stroke-dasharray:none"
           d="m 1900.7005,1018.7002 c -8.8147,0.01 -16.71,4.7238 -20.1895,11.8122 l -0.834,1.6955 -28.5311,59.3788 c 8.279,-6.209 18.8771,-9.844 30.1563,-9.865 14.0031,0 26.5583,5.5293 35.1157,14.2534 l -18.3405,-54.7362 h 16.4258 8.2724 l -0.01,-2.7926 c 0,-10.7912 -9.723,-19.7415 -22.0684,-19.7425 z"
           id="path64" /><path
           id="path65"
           style="fill:#ffffff;fill-opacity:1;stroke:none;stroke-width:5;stroke-dasharray:none"
           d="m 2025.4195,1086.7255 c -23.2443,0 -41.7267,16.3567 -41.7267,36.1658 0,19.8091 18.4824,36.1642 41.7267,36.1642 23.2443,0 41.7266,-16.3551 41.7266,-36.1642 0,-19.8091 -18.4823,-36.1658 -41.7266,-36.1658 z" /><path
           style="fill:#ffffff;fill-opacity:1;stroke:none;stroke-width:5;stroke-dasharray:none"
           d="m 2006.0191,1018.7038 v 0 c -12.3453,10e-4 -22.0685,8.9507 -22.0684,19.7419 l -0.01,2.789 h 8.2703 16.4279 l -18.341,54.7383 c 8.5574,-8.7243 21.1128,-14.2519 35.1162,-14.2519 11.2786,0.021 21.8754,3.6572 30.1542,9.8656 l -28.5253,-59.3695 -0.8377,-1.7049 c -3.4795,-7.0882 -11.3746,-11.8027 -20.1895,-11.8127 z"
           id="path66" /></g></g><g
       id="g81"><rect
         style="fill:#808080;stroke:none;stroke-width:2"
         id="rect66"
         width="248.35352"
         height="248.35352"
         x="3306.5967"
         y="2186.2778" /><g
         id="g71"
         transform="translate(1480.5888,1224.752)"
         style="fill:#000000;fill-opacity:0.708013"><path
           id="path67"
           style="fill:#000000;fill-opacity:0.708013;stroke:none;stroke-width:4.99999;stroke-dasharray:none"
           d="m 1905.0268,1046.2391 19.0469,56.8477 h 21.0117 l 8.2734,-24.6957 8.2754,24.6957 h 21.0117 l 19.0469,-56.8477 h -9.4785 -11.1523 l -8.2755,24.6972 -8.2734,-24.6972 h -22.3066 l -8.2755,24.6972 -8.2734,-24.6972 h -11.1544 z" /><path
           id="path68"
           style="fill:#000000;fill-opacity:0.708013;stroke:none;stroke-width:5;stroke-dasharray:none"
           d="m 1881.3001,1086.7255 c -23.2443,0 -41.7266,16.3567 -41.7266,36.1658 0,19.8091 18.4823,36.1642 41.7266,36.1642 23.2443,0 41.7267,-16.3551 41.7267,-36.1642 0,-19.8091 -18.4824,-36.1658 -41.7267,-36.1658 z" /><path
           style="fill:#000000;fill-opacity:0.708013;stroke:none;stroke-width:5;stroke-dasharray:none"
           d="m 1900.7005,1018.7002 c -8.8147,0.01 -16.71,4.7238 -20.1895,11.8122 l -0.834,1.6955 -28.5311,59.3788 c 8.279,-6.209 18.8771,-9.844 30.1563,-9.865 14.0031,0 26.5583,5.5293 35.1157,14.2534 l -18.3405,-54.7362 h 16.4258 8.2724 l -0.01,-2.7926 c 0,-10.7912 -9.723,-19.7415 -22.0684,-19.7425 z"
           id="path69" /><path
           id="path70"
           style="fill:#000000;fill-opacity:0.708013;stroke:none;stroke-width:5;stroke-dasharray:none"
           d="m 2025.4195,1086.7255 c -23.2443,0 -41.7267,16.3567 -41.7267,36.1658 0,19.8091 18.4824,36.1642 41.7267,36.1642 23.2443,0 41.7266,-16.3551 41.7266,-36.1642 0,-19.8091 -18.4823,-36.1658 -41.7266,-36.1658 z" /><path
           style="fill:#000000;fill-opacity:0.708013;stroke:none;stroke-width:5;stroke-dasharray:none"
           d="m 2006.0191,1018.7038 v 0 c -12.3453,10e-4 -22.0685,8.9507 -22.0684,19.7419 l -0.01,2.789 h 8.2703 16.4279 l -18.341,54.7383 c 8.5574,-8.7243 21.1128,-14.2519 35.1162,-14.2519 11.2786,0.021 21.8754,3.6572 30.1542,9.8656 l -28.5253,-59.3695 -0.8377,-1.7049 c -3.4795,-7.0882 -11.3746,-11.8027 -20.1895,-11.8127 z"
           id="path71" /></g><path
         style="fill:#ac7b16;fill-opacity:1;stroke:none;stroke-width:5;stroke-dasharray:none"
         d="m 3402.9386,2344.3148 a 44.226398,38.665764 0 0 1 5e-4,0.01 v -0.01 z"
         id="path72" /><g
         id="g77"
         transform="translate(1477.4138,1221.577)"
         style="fill:#1f6aa5;fill-opacity:1"><path
           id="path73"
           style="fill:#1f6aa5;fill-opacity:1;stroke:none;stroke-width:4.99999;stroke-dasharray:none"
           d="m 1905.0268,1046.2391 19.0469,56.8477 h 21.0117 l 8.2734,-24.6957 8.2754,24.6957 h 21.0117 l 19.0469,-56.8477 h -9.4785 -11.1523 l -8.2755,24.6972 -8.2734,-24.6972 h -22.3066 l -8.2755,24.6972 -8.2734,-24.6972 h -11.1544 z" /><path
           id="path74"
           style="fill:#1f6aa5;fill-opacity:1;stroke:none;stroke-width:5;stroke-dasharray:none"
           d="m 1881.3001,1086.7255 c -23.2443,0 -41.7266,16.3567 -41.7266,36.1658 0,19.8091 18.4823,36.1642 41.7266,36.1642 23.2443,0 41.7267,-16.3551 41.7267,-36.1642 0,-19.8091 -18.4824,-36.1658 -41.7267,-36.1658 z" /><path
           style="fill:#1f6aa5;fill-opacity:1;stroke:none;stroke-width:5;stroke-dasharray:none"
           d="m 1900.7005,1018.7002 c -8.8147,0.01 -16.71,4.7238 -20.1895,11.8122 l -0.834,1.6955 -28.5311,59.3788 c 8.279,-6.209 18.8771,-9.844 30.1563,-9.865 14.0031,0 26.5583,5.5293 35.1157,14.2534 l -18.3405,-54.7362 h 16.4258 8.2724 l -0.01,-2.7926 c 0,-10.7912 -9.723,-19.7415 -22.0684,-19.7425 z"
           id="path75" /><path
           id="path76"
           style="fill:#1f6aa5;fill-opacity:1;stroke:none;stroke-width:5;stroke-dasharray:none"
           d="m 2025.4195,1086.7255 c -23.2443,0 -41.7267,16.3567 -41.7267,36.1658 0,19.8091 18.4824,36.1642 41.7267,36.1642 23.2443,0 41.7266,-16.3551 41.7266,-36.1642 0,-19.8091 -18.4823,-36.1658 -41.7266,-36.1658 z" /><path
           style="fill:#1f6aa5;fill-opacity:1;stroke:none;stroke-width:5;stroke-dasharray:none"
           d="m 2006.0191,1018.7038 v 0 c -12.3453,10e-4 -22.0685,8.9507 -22.0684,19.7419 l -0.01,2.789 h 8.2703 16.4279 l -18.341,54.7383 c 8.5574,-8.7243 21.1128,-14.2519 35.1162,-14.2519 11.2786,0.021 21.8754,3.6572 30.1542,9.8656 l -28.5253,-59.3695 -0.8377,-1.7049 c -3.4795,-7.0882 -11.3746,-11.8027 -20.1895,-11.8127 z"
           id="path77" /></g></g></g></svg>
